# xmcd CD database file
#
# Track frame offsets:
#	150
#	69972
#	112542
#	165547
#	207392
#	221602
#	248102
#
# Disc length: 4244 seconds
#
# Revision: 2
# Processed by: cddbd v1.5.1PL0 Copyright (c) Steve Scherf et al.
# Submitted via: CDex 1.51
#
DISCID=57109207
DTITLE=Niels Eje - MusiCure 1. The Journey
DYEAR=2003
DGENRE=New Age
TTITLE0=Dawn
TTITLE1=Journey
TTITLE2=Song of the Heart
TTITLE3=Enchantment
TTITLE4=Poem
TTITLE5=Twilight
TTITLE6=Night
EXTD=YEAR: 2003
EXTT0=
EXTT1=
EXTT2=
EXTT3=
EXTT4=
EXTT5=
EXTT6=
PLAYORDER=
